<svg width="128" height="128" viewBox="0 0 128 128" fill="black" xmlns="http://www.w3.org/2000/svg">
  <path fill-rule="evenodd" clip-rule="evenodd"
    d="M115 64.5344C115 64.3353 114.908 64.2285 114.809 64.0427C114.793 64.0134 114.785 63.9806 114.785 63.9475V63.9475C114.785 63.9102 114.776 63.8735 114.757 63.8412L89.889 20.5366C89.6744 20.2146 89.3524 20 89.0305 20H38.8085C38.7491 20 38.6896 20.033 38.6301 20.0623C38.543 20.1054 38.448 20.1459 38.3793 20.2146L38.3321 20.2618C38.2936 20.3003 38.2829 20.3269 38.2586 20.3756V20.3756C38.2342 20.4243 38.143 20.4509 38.1045 20.4894L38.0835 20.5104C38.0661 20.5278 38.0512 20.5474 38.039 20.5686L13.161 63.9979C12.9463 64.3198 12.9463 64.6418 13.161 64.9637L38.0233 108.258C38.0459 108.298 38.0736 108.334 38.1056 108.366V108.366C38.1447 108.405 38.1757 108.451 38.2059 108.498C38.2381 108.547 38.2704 108.581 38.3026 108.608C38.4199 108.706 38.5553 108.784 38.6885 108.859C38.7935 108.918 38.8866 108.962 39.0231 108.962V108.962C39.2477 108.962 39.4712 108.854 39.6958 108.854H88.9232C89.2451 108.854 89.5671 108.64 89.7817 108.318L113.983 66.1233C114.299 65.5724 115 65.1695 115 64.5344V64.5344ZM90.6938 102.911C89.2665 105.393 86.6218 106.923 83.7589 106.923H45.2636C43.2546 106.923 42 104.747 43.0066 103.008V103.008C43.0694 102.899 43.1282 102.787 43.1607 102.666C43.1928 102.546 43.2087 102.427 43.2083 102.312C43.2062 101.648 42.3957 101.134 41.8093 101.445C41.6745 101.517 41.5643 101.626 41.4913 101.772V101.772C40.448 103.621 37.789 103.635 36.7267 101.796L17.5067 68.5274C16.0789 66.056 16.076 63.0112 17.4989 60.537L36.6275 27.2774C37.685 25.4387 40.3418 25.4497 41.384 27.2972V27.2972C41.5986 27.6192 41.9206 27.8338 42.2425 27.8338C42.4571 27.8338 42.5644 27.7265 42.7791 27.6192C43.3156 27.4045 43.4229 26.7607 43.101 26.2241V26.2241C42.0457 24.3533 43.3974 22.0389 45.5453 22.0389H83.7633C86.6239 22.0389 89.2667 23.5663 90.6949 26.0448L109.96 59.4775C111.008 61.2967 109.695 63.5686 107.595 63.5686V63.5686C107.059 63.5686 106.63 63.9979 106.63 64.5344C106.63 65.071 107.059 65.5003 107.595 65.5003V65.5003C109.648 65.5003 110.933 67.7208 109.909 69.5003L90.6938 102.911ZM46.8569 36.6334C47.0715 36.9553 47.3935 37.1699 47.7154 37.1699C47.93 37.1699 48.0373 37.0626 48.252 36.9553C48.7885 36.7407 48.8958 36.0968 48.5739 35.5602L45.6243 30.4476C45.4447 30.1363 45.3142 29.7442 44.9978 29.5737V29.5737C44.4144 29.2593 43.5546 29.7844 43.5639 30.447C43.5667 30.6459 43.627 30.8567 43.7449 31.0531L46.8569 36.6334ZM52.3298 46.0768C52.5445 46.3987 52.8664 46.6134 53.1883 46.6134C53.4029 46.6134 53.5103 46.506 53.7249 46.3987C54.2614 46.1841 54.3688 45.5402 54.0468 45.0037L51.0972 39.891C50.9176 39.5797 50.7871 39.1877 50.4707 39.0172V39.0172C49.8874 38.7028 49.0275 39.2278 49.0368 39.8904C49.0396 40.0893 49.0999 40.3001 49.2178 40.4966L52.3298 46.0768ZM57.6954 55.5202C57.91 55.8422 58.232 56.0568 58.5539 56.0568C58.7685 56.0568 58.8759 55.9495 59.0905 55.8422C59.627 55.6276 59.7343 54.9837 59.4124 54.4471L56.4628 49.3345C56.2832 49.0232 56.1527 48.6311 55.8363 48.4606V48.4606C55.253 48.1462 54.3931 48.6712 54.4024 49.3339C54.4052 49.5328 54.4655 49.7436 54.5834 49.94L57.6954 55.5202ZM70.4655 63.5686H69.1583C66.313 63.5686 63.6818 62.0573 62.2481 59.5996L61.8365 58.894C61.6515 58.5769 61.5177 58.1756 61.192 58.0061V58.0061C60.6109 57.7038 59.7661 58.2181 59.7679 58.873C59.7684 59.0753 59.8288 59.2905 59.949 59.4908L60.6445 60.6831C62.0749 63.1353 62.0987 66.1618 60.7069 68.6361L60.0563 69.7927C59.9247 70.1218 59.9141 70.4509 60.0247 70.7304C60.1679 71.0927 60.5252 71.4024 60.9148 71.4024V71.4024C61.2367 71.4024 61.5587 71.1878 61.7733 70.8658L62.3769 69.7928C63.7938 67.2738 66.4593 65.7149 69.3495 65.7149H70.5729C70.9102 65.7149 71.2051 65.5452 71.3776 65.2859C71.5873 64.9707 71.5437 64.5468 71.3816 64.2047C71.1872 63.7943 70.8546 63.5686 70.4655 63.5686ZM81.4114 63.5686H74.9726C74.4361 63.5686 74.0068 63.9979 74.0068 64.5344C74.0068 65.071 74.4361 65.5002 74.9726 65.5002H81.4114C81.9479 65.5002 82.3772 65.071 82.3772 64.5344C82.3772 63.9979 81.8406 63.5686 81.4114 63.5686ZM92.2499 63.5686H85.8112C85.2746 63.5686 84.8453 63.9979 84.8453 64.5344C84.8453 65.071 85.2746 65.5002 85.8112 65.5002H92.2499C92.7864 65.5002 93.2157 65.071 93.2157 64.5344C93.2157 63.9979 92.7864 63.5686 92.2499 63.5686ZM103.196 63.5686H96.6497C96.1131 63.5686 95.6838 63.9979 95.6838 64.5344C95.6838 65.071 96.1131 65.5002 96.6497 65.5002H103.088C103.345 65.5002 103.577 65.4023 103.749 65.2414C104.134 64.8819 104.185 64.1793 103.797 63.8225C103.626 63.6646 103.399 63.5686 103.196 63.5686ZM59.0905 73.2267C58.5539 73.0121 58.0174 73.1194 57.8027 73.5486L54.8693 78.6333C54.6789 78.9633 54.4672 79.3062 54.4764 79.6869C54.4796 79.8199 54.5048 79.9477 54.5518 80.0666C54.695 80.4288 55.0523 80.7385 55.4419 80.7385V80.7385C55.7638 80.7385 56.0857 80.5239 56.3004 80.202L59.2338 75.1173C59.4242 74.7873 59.6341 74.4397 59.5984 74.0604C59.5643 73.6983 59.3743 73.3686 59.0905 73.2267ZM53.6176 82.6701C53.081 82.4555 52.5444 82.5628 52.3298 82.9921L49.3963 88.0768C49.206 88.4067 48.9943 88.7496 49.0035 89.1304C49.0067 89.2633 49.0318 89.3911 49.0788 89.51C49.2221 89.8723 49.5794 90.182 49.969 90.182V90.182C50.2909 90.182 50.6128 89.9674 50.8275 89.6454L54.0468 84.0652C54.3688 83.5286 54.1541 82.8848 53.6176 82.6701ZM48.252 92.1136C47.7154 91.899 47.1788 92.0063 46.9642 92.4355L44.0307 97.5202C43.8404 97.8502 43.6287 98.1931 43.6379 98.5738C43.6411 98.7068 43.6663 98.8346 43.7133 98.9534C43.8565 99.3157 44.2138 99.6254 44.6034 99.6254V99.6254C44.9253 99.6254 45.2472 99.4108 45.4619 99.0889L48.3953 94.0042C48.5857 93.6742 48.7956 93.3266 48.7599 92.9473C48.7258 92.5852 48.5358 92.2555 48.252 92.1136Z"
    class="path" />
  <style>
    .path {
      fill: #000;
    }

    @media (prefers-color-scheme:dark) {
      .path {
        fill: white;
      }
    }
  </style>
</svg>